<svg xmlns="http://www.w3.org/2000/svg" viewBox="0 0 183.67 164.28"><defs><style>.cls-1{fill:#36a9e1;}</style></defs><g id="Layer_2" data-name="Layer 2"><g id="Layer_1-2" data-name="Layer 1"><path class="cls-1" d="M179.83,124.83l0-.06-2.09-3.47a7.16,7.16,0,0,1-1-3.68v-43a64,64,0,0,0-6.14-27.5,64.63,64.63,0,0,0-46.21-35.86,12.22,12.22,0,0,0-6.29-9.37l-1.77,4.78a7.26,7.26,0,0,1,2.83,3.82l-.66-.06c-.69-.06-1.37-.12-2.06-.16l-1.11-.07H115l-1.84,5c1.09,0,2.19.05,3.28.13.79,0,1.58.11,2.37.2s1.82.22,2.72.36h0a59.48,59.48,0,0,1,50.17,58.77v43a12.27,12.27,0,0,0,1.73,6.26l.11.19H72.79l-1.85,5h106c1,0,1.76,1.17,1.76,2.49v6c0,1.33-.79,2.45-1.76,2.5H66.85l-1.85,5H85.66a27.93,27.93,0,0,0,53,0h38.12l.45,0c3.6-.25,6.4-3.52,6.4-7.49v-6A7.58,7.58,0,0,0,179.83,124.83Zm-67.65,34.45A22.84,22.84,0,0,1,91,145.11h42.4A22.84,22.84,0,0,1,112.18,159.28Z"/><path class="cls-1" d="M74.25,28.81l3.06-8.42q-2.22,1.41-4.31,3A64.91,64.91,0,0,0,53.82,47.14a64,64,0,0,0-6.13,27.5v27.2l5-13.75V74.64a59,59,0,0,1,5.66-25.37A59.86,59.86,0,0,1,74.25,28.81Z"/><path class="cls-1" d="M22.46,161,0,92.88H23.36l13.5,47.75h2L90.05,0h23.36L53.76,161Z"/></g></g></svg>