<svg xmlns="http://www.w3.org/2000/svg" viewBox="0 0 148.6 163.89"><defs><style>.cls-1{fill:#e30613;}</style></defs><g id="Layer_2" data-name="Layer 2"><g id="Layer_1-2" data-name="Layer 1"><path class="cls-1" d="M89.1,15.89l-2.67-.42a60.06,60.06,0,0,0-18.64,0l-2.66.42-.22-2.69c0-.31,0-.63,0-1a12.24,12.24,0,1,1,24.48,0c0,.33,0,.64,0,.95Zm-12-6.15a63.76,63.76,0,0,1,6.92.37,7.24,7.24,0,0,0-13.84,0A64,64,0,0,1,77.11,9.74Z"/><rect class="cls-1" x="3.12" y="125.2" width="35.77" height="30.66"/><polyline class="cls-1" points="42.02 2.64 35.77 118.01 6.25 118.01 0 2.64 42.02 2.64"/><path class="cls-1" d="M144.72,124.37l-2.08-3.47a7.15,7.15,0,0,1-1-3.68v-43a64,64,0,0,0-6.14-27.5A64.51,64.51,0,0,0,67,10.53a64.07,64.07,0,0,0-18.72,6V22.2a59.18,59.18,0,0,1,19.49-6.73,60.13,60.13,0,0,1,18.65,0A59.24,59.24,0,0,1,113.26,27,59.93,59.93,0,0,1,131,48.88a59,59,0,0,1,5.66,25.36v43a12.16,12.16,0,0,0,1.74,6.26l.12.19h3.28l.45,0a6.39,6.39,0,0,1,2.56.75A.25.25,0,0,0,144.72,124.37Z"/><path class="cls-1" d="M142.2,123.69l-.45,0H45.16v5h96.67a2.31,2.31,0,0,1,1.77,2.5v6a2.31,2.31,0,0,1-1.77,2.5H45.16v5h5.43a27.92,27.92,0,0,0,53,0h38.12a3.46,3.46,0,0,0,.45,0c3.6-.25,6.4-3.52,6.4-7.48v-6C148.6,127.22,145.8,123.94,142.2,123.69Zm-65.09,35.2a22.84,22.84,0,0,1-21.2-14.18h42.4A22.82,22.82,0,0,1,77.11,158.89Z"/></g></g></svg>